<svg xmlns="http://www.w3.org/2000/svg" id="a" data-name="Layer 1" viewBox="0 0 120 55"><defs><style>      .b {        fill: #50c0e8;      }      .b, .c {        stroke-width: 0px;      }      .c {        fill: #fff;      }    </style></defs><g><path class="b" d="M27.28,40.61c.58.33,1.17.66,1.76.99.3.17.59.35.9.5.31.16.62.31.93.47.62.32,1.24.64,1.87.96l.47.24.49.22c.32.15.65.29.98.44.65.3,1.31.6,1.97.89.67.27,1.35.53,2.03.8.34.13.68.27,1.02.4.17.06.34.14.51.2l.52.17c.7.23,1.39.46,2.09.69l.52.17.26.09.27.07,1.07.28c.71.19,1.42.38,2.12.57.72.14,1.43.29,2.14.43.36.07.71.14,1.06.22.18.04.36.06.53.09l.53.07c.71.1,1.42.2,2.12.29.18.02.35.05.53.07.18.01.35.02.53.04.35.02.7.05,1.05.07.35.02.69.05,1.04.07.34.02.68.06,1.03.05h2.02c.4,0,.8,0,1.2-.01.4-.02.8-.05,1.2-.07.4-.02.8-.05,1.21-.07.4-.02.81-.04,1.21-.09.81-.09,1.61-.18,2.42-.27.41-.03.81-.11,1.21-.18.4-.07.81-.13,1.21-.2.4-.07.81-.13,1.21-.2.4-.08.8-.17,1.21-.26.4-.09.81-.17,1.21-.26l.61-.13.3-.07.3-.08c.8-.22,1.6-.43,2.4-.65.2-.06.4-.1.6-.17l.59-.19,1.18-.38,1.18-.38c.39-.14.78-.29,1.17-.44l1.16-.44.58-.22.29-.11.28-.12c.76-.33,1.52-.66,2.28-.99.19-.08.38-.16.57-.25l.56-.27c.37-.18.74-.36,1.11-.54.37-.18.74-.36,1.11-.54.37-.18.72-.39,1.08-.58.72-.4,1.44-.78,2.15-1.18,1.39-.85,7.03-4.39,8.34-5.31.11.16-.63.99.32.47,1.88-1.05,2.82-1.59,3.37-1.76.54-.18.65-.03.77.13.11.15-1.9,1.6-2.21,1.84-.67.48-.91.6-1.66,1.12-.38.26-.75.53-1.1.75-.35.23.27-.16-.02.03-.61.42-1.84,1.37-.38.6.26-.1.98-.57,1.44-.9.25-.14-.43.28-.16.1.28-.18.56-.37.85-.55.57-.38,1.15-.75,1.65-1.05.48-.32,2.92-2.14,3.18-2.24,1.06-.42-.56,1.11.5.69.45-.33-.9.75-.22.25.65-.52,1.3-1.04,1.74-1.38.99-.55-3.52,2.87-2.65,2.17.34-.24.69-.5,1.06-.77.35-.28-.52.44-.15.13.37-.31.75-.63,1.13-.95.19-.16.47-.46.66-.63.19-.18.29-.22.49-.4.38-.36.77-.72,1.16-1.09.2-.19-.44.43-.25.24.2-.19.4-.37.59-.57.77-.79.62-.6,1.4-1.39.07.07,1.25-1.05,1.31-1,.03.03.01.11-.1.28-.12.17-.35.44-.73.86-6.8,7.07-13.94,12.4-22.92,16.83-4.48,2.21-9.21,3.99-14.1,5.22-4.89,1.23-9.93,1.91-15,1.97-5.06.05-10.13-.53-15.05-1.7-4.92-1.16-9.69-2.9-14.2-5.11-4.51-2.22-8.75-4.89-12.72-7.87-.99-.75-2-1.47-2.93-2.29l-1.43-1.19-.71-.59c-.24-.2-.48-.39-.7-.61-.91-.84-1.81-1.67-2.72-2.51-.22-.21-.46-.41-.67-.63l-.65-.66-1.29-1.31c-3.11-3.24-.45-1.11,2.11,1.04-.85-.72-.65-.92-1.51-1.64.1-.1.63.16,1.53.82.88.69.02-.09,1.68,1.36-.82-.74.57.29-.24-.46-.75-.82.19-.2.32-.34.81.74,1.63,1.48,1.69,1.41.06-.07.19-.21.25-.28-.4-.37-1.01-.92-1.62-1.47-.31-.27-.59-.57-.86-.83-.27-.27-.51-.51-.7-.7.39.39.51.31.8.59.15.14.28.25.38.32.1.07.16.1.18.09.07-.07.47.25.53.19.84.7,1.83,1.63,2.82,2.57.13.12.25.24.37.35.13.11.26.22.39.33.26.22.51.43.76.64.5.42.97.8,1.41,1.13l.18-.22c-.4-.36-.86-.76-1.36-1.18-.25-.21-.5-.42-.76-.63-.13-.11-.26-.21-.39-.32-.13-.11-.25-.23-.38-.34-1.01-.9-2.03-1.8-2.83-2.53.87.66.93.59,1.06.45.62.53,1.22,1.07,1.81,1.63l.44.42c.15.14.31.27.46.4l.92.79c.62.53,1.24,1.05,1.87,1.55l.24.19.25.18.5.34c.34.23.68.45,1.02.66-.86-.65-1.74-1.27-2.56-1.98.24.13.52.29.82.5.3.2.64.41.99.66.71.49,1.49,1.07,2.29,1.68.1.08.2.15.3.23.1.08.21.14.31.22l.63.44c.42.29.84.58,1.24.86.41.28.81.55,1.19.81.39.25.77.46,1.12.66Z"></path><path class="b" d="M3.1,28.01c.02.15.04.3.07.45-.06-.64-.09-1.28-.06-1.89.03-.61.13-1.19.32-1.66.2-.46.47-.8.83-.99.36-.2.82-.29,1.31-.28.13.02.38.08.51.12,1.01.09,2.44.4,3.58.74.57.16,1.14-.02,1.14-.02.17,0,.37-.07.25-.2-.27-.16-.99-.43-.95-.56.01-.03.16.02.31.08.05-.14.6-.23.74-.16.18-.01,1.14.19,1.32.21.12.03.15-.02.1-.11-.04-.1-.15-.24-.3-.4-.29-.31-.73-.68-1.02-.85-.29-.19.06-.17.11-.26-.33-.09-.45-.25-.79-.33.01-.04-.95-.4-1.47-.53,0,0-.17-.02-.69-.13-.17-.04-.18,0-.19.03t.02-.07c-.19.03-.52-.1-.71-.09t.01-.07c-.37.02-.72-.09-1.1-.07t0-.07c-.19-.01-.38,0-.38-.04v-.07c-.19-.04-.59.05-.59-.01t0,.07c-.79.06-1.44.19-2.08.43-.43.15-.89.41-1.29.77-.4.35-.75.81-.99,1.28-.25.48-.4.97-.5,1.45-.09.48-.13.93-.14,1.36-.01.19.06.38.13.19,0,.18-.01.38,0,.56.01.36.11.18.13.54.09.71.21,1.39.35,2.06.14.67.3,1.33.48,1.97.35,1.29.77,2.55,1.3,3.76-.09-.32-.18-.59-.26-.87-.08-.28-.17-.55-.3-.86.04-.01.1-.04.05-.19-.3-.94-.68-2.05-.66-2.57,0-.17.05-.35-.06-.84l.11.49s.1-.02.1-.02c-.12-.65-.25-1.47-.29-2.14,0,0,.07,0,.11-.01l-.04-.33c.11-.18.19.19.3.69.1.5.23,1.14.34,1.53.04,0,.1-.02.14-.03l-.07-.31.07-.02c.21.94.43,1.71.72,2.63-.05-.15-.14-.46-.19-.61.04-.01.07-.02.02-.17.19.61.4,1.39.69,1.97.09.14.13-.05,0-.51-.15-.45-.26-.76-.4-1.22l.07-.02c.09.31.21.77.34,1.06.09.14,0-.34.09-.2.05.15.1.3.19.44-.16-.45-.39-1.04-.49-1.51-.01-.16-.02-.32.05-.34-.26-.74-.29-1.38-.22-1.87.03-.16-.14-.91-.2-1.35Z"></path><path class="b" d="M119.3,29.84c-.02.17-.05.34-.07.51.16-.71.26-1.46.27-2.24,0-.78-.07-1.61-.36-2.45-.15-.42-.35-.83-.63-1.22-.27-.38-.62-.73-1.01-1-.77-.55-1.64-.81-2.42-.96-.19-.06-.59-.15-.78-.18-.78-.06-1.62.04-2.41.21-.79.18-1.54.43-2.18.7-.32.13-.57.34-.73.52-.16.17-.24.31-.24.31-.13.13-.23.33-.04.33.32-.1,1.1-.4,1.15-.26.01.03-.14.09-.3.15.05.13-.3.57-.45.64-.13.12-.92.72-1.02.86-.09.08-.07.13.03.15.1.02.26.03.47.02.4-.01.93-.06,1.23-.13.31-.05.06.17.1.27.27-.14.45-.1.72-.23.01.03.88-.23,1.3-.33,0,0,.13-.08.56-.17.14-.03.13-.06.13-.1t.01.07c.13-.1.43-.08.56-.14t.01.07c.27-.11.56-.07.82-.12t0,.07c.13,0,.26,0,.26.03v.07c.13.03.38-.02.37.05t0-.07c.49.03.8.17,1.04.31.31.22.52.43.73.8.1.18.19.41.27.66.07.26.13.54.16.83.01.13.08.26.15.13,0,.14.01.27,0,.41,0,.28.11.14.09.43.01.58-.05,1.17-.16,1.77-.11.6-.25,1.19-.43,1.79-.34,1.19-.77,2.37-1.18,3.56.13-.28.25-.54.36-.79.11-.25.21-.51.3-.81.03.01.1.04.15-.11.35-.88.57-1.95.82-2.37.07-.14.22-.27.32-.72l-.1.46s.1.02.1.02c.18-.6.37-1.37.48-1.98,0,0,.07,0,.11.01l.04-.31c.14-.15.16.21.12.71-.04.5-.18,1.12-.25,1.52.03,0,.1.02.14.03l.07-.31h.07c-.21.96-.43,1.74-.73,2.66.05-.15.14-.46.19-.62.03.01.07.02.12-.13-.19.62-.47,1.38-.63,2.01-.02.17.13.05.33-.4.15-.46.26-.77.41-1.24l.07.02c-.09.31-.28.76-.35,1.08-.02.17.2-.27.19-.11-.05.16-.1.31-.13.48.17-.46.34-1.09.51-1.56.08-.15.16-.29.23-.27.2-.8.45-1.42.73-1.88.06-.08.11-.33.16-.62.05-.3.1-.63.13-.89Z"></path></g><g><path class="c" d="M20.32,10.77h7.22v3.65c1.76-2.37,4.18-4.13,7.93-4.13,5.93,0,11.58,4.65,11.58,13.15v.1c0,8.5-5.55,13.15-11.58,13.15-3.85,0-6.22-1.76-7.93-3.8v12.79h-7.22V10.77ZM39.83,23.53v-.1c0-4.22-2.85-7.02-6.22-7.02s-6.17,2.8-6.17,7.02v.1c0,4.22,2.8,7.02,6.17,7.02s6.22-2.75,6.22-7.02Z"></path><path class="c" d="M47.66,23.53v-.1c0-8.5,5.55-13.15,11.58-13.15,3.84,0,6.22,1.76,7.93,3.8V.51h7.21v35.69h-7.21v-3.66c-1.76,2.37-4.18,4.13-7.93,4.13-5.93,0-11.58-4.65-11.58-13.15ZM67.26,23.53v-.1c0-4.22-2.8-7.02-6.17-7.02s-6.22,2.75-6.22,7.02v.1c0,4.22,2.85,7.02,6.22,7.02s6.17-2.8,6.17-7.02Z"></path><path class="c" d="M76.04,23.63v-.1c0-7.26,5.55-13.24,13.34-13.24,4.79,0,7.78,1.61,10.16,4.27l-4.42,4.75c-1.61-1.71-3.23-2.8-5.79-2.8-3.61,0-6.17,3.18-6.17,6.93v.1c0,3.89,2.51,7.02,6.46,7.02,2.42,0,4.08-1.04,5.84-2.71l4.22,4.27c-2.47,2.71-5.32,4.65-10.4,4.65-7.64,0-13.24-5.89-13.24-13.15Z"></path></g></svg>