<?xml version="1.0" encoding="UTF-8"?>
<svg xmlns="http://www.w3.org/2000/svg" xmlns:xlink="http://www.w3.org/1999/xlink" width="43px" height="20px" viewBox="0 0 43 20" version="1.1">
<g id="surface1">
<path style=" stroke:none;fill-rule:nonzero;fill:rgb(100%,100%,100%);fill-opacity:1;" d="M 9.773438 14.765625 C 9.984375 14.886719 10.195312 15.007812 10.40625 15.128906 C 10.511719 15.1875 10.617188 15.253906 10.726562 15.308594 C 10.839844 15.367188 10.949219 15.421875 11.0625 15.480469 C 11.285156 15.597656 11.507812 15.710938 11.730469 15.828125 L 11.898438 15.917969 L 12.074219 15.996094 C 12.191406 16.050781 12.308594 16.101562 12.425781 16.15625 C 12.660156 16.265625 12.894531 16.375 13.132812 16.480469 C 13.371094 16.578125 13.617188 16.671875 13.859375 16.769531 C 13.980469 16.816406 14.105469 16.867188 14.226562 16.917969 C 14.285156 16.9375 14.347656 16.96875 14.410156 16.988281 L 14.59375 17.050781 C 14.847656 17.132812 15.09375 17.21875 15.34375 17.300781 L 15.625 17.394531 L 15.71875 17.421875 L 16.101562 17.523438 C 16.359375 17.59375 16.613281 17.660156 16.863281 17.730469 C 17.121094 17.78125 17.375 17.835938 17.628906 17.886719 C 17.757812 17.914062 17.882812 17.9375 18.011719 17.96875 C 18.074219 17.980469 18.140625 17.988281 18.199219 18 L 18.390625 18.027344 C 18.644531 18.0625 18.898438 18.097656 19.148438 18.132812 C 19.214844 18.136719 19.273438 18.148438 19.339844 18.15625 C 19.402344 18.160156 19.464844 18.164062 19.527344 18.171875 C 19.65625 18.179688 19.78125 18.1875 19.90625 18.195312 C 20.03125 18.203125 20.152344 18.214844 20.277344 18.222656 C 20.398438 18.230469 20.523438 18.242188 20.648438 18.238281 L 21.371094 18.238281 C 21.515625 18.238281 21.65625 18.238281 21.800781 18.238281 C 21.945312 18.230469 22.085938 18.21875 22.230469 18.210938 C 22.375 18.203125 22.519531 18.191406 22.664062 18.183594 C 22.808594 18.179688 22.953125 18.171875 23.097656 18.152344 C 23.386719 18.121094 23.675781 18.085938 23.964844 18.054688 C 24.113281 18.042969 24.253906 18.015625 24.398438 17.988281 C 24.542969 17.964844 24.6875 17.941406 24.832031 17.917969 C 24.976562 17.890625 25.121094 17.867188 25.265625 17.84375 C 25.410156 17.816406 25.554688 17.78125 25.699219 17.75 C 25.84375 17.714844 25.988281 17.6875 26.132812 17.65625 L 26.351562 17.605469 L 26.460938 17.582031 L 26.566406 17.550781 C 26.851562 17.472656 27.140625 17.394531 27.425781 17.316406 C 27.5 17.292969 27.570312 17.28125 27.640625 17.253906 L 27.851562 17.183594 L 28.277344 17.046875 L 28.699219 16.910156 C 28.839844 16.859375 28.976562 16.804688 29.117188 16.75 L 29.535156 16.589844 L 29.742188 16.507812 L 29.84375 16.46875 L 29.945312 16.425781 C 30.21875 16.304688 30.492188 16.183594 30.761719 16.066406 C 30.832031 16.035156 30.898438 16.007812 30.96875 15.972656 L 31.167969 15.875 C 31.300781 15.8125 31.433594 15.746094 31.566406 15.679688 C 31.699219 15.613281 31.832031 15.550781 31.964844 15.484375 C 32.097656 15.417969 32.222656 15.34375 32.351562 15.273438 C 32.609375 15.128906 32.867188 14.988281 33.121094 14.84375 C 33.617188 14.535156 35.640625 13.246094 36.109375 12.914062 C 36.148438 12.972656 35.882812 13.273438 36.222656 13.082031 C 36.898438 12.703125 37.234375 12.503906 37.429688 12.445312 C 37.625 12.378906 37.664062 12.433594 37.707031 12.492188 C 37.746094 12.546875 37.027344 13.074219 36.914062 13.160156 C 36.675781 13.335938 36.589844 13.378906 36.320312 13.566406 C 36.183594 13.660156 36.050781 13.761719 35.925781 13.839844 C 35.800781 13.921875 36.023438 13.78125 35.917969 13.851562 C 35.699219 14.003906 35.261719 14.347656 35.78125 14.070312 C 35.875 14.03125 36.132812 13.863281 36.300781 13.742188 C 36.390625 13.691406 36.144531 13.84375 36.242188 13.777344 C 36.34375 13.710938 36.441406 13.644531 36.546875 13.578125 C 36.75 13.441406 36.957031 13.304688 37.136719 13.195312 C 37.308594 13.078125 38.183594 12.417969 38.277344 12.382812 C 38.65625 12.230469 38.078125 12.785156 38.457031 12.632812 C 38.617188 12.511719 38.132812 12.90625 38.378906 12.722656 C 38.609375 12.535156 38.84375 12.34375 39 12.222656 C 39.355469 12.023438 37.738281 13.265625 38.050781 13.011719 C 38.171875 12.921875 38.296875 12.828125 38.429688 12.730469 C 38.558594 12.628906 38.246094 12.890625 38.378906 12.777344 C 38.511719 12.664062 38.644531 12.550781 38.78125 12.433594 C 38.851562 12.375 38.949219 12.265625 39.019531 12.203125 C 39.085938 12.136719 39.121094 12.125 39.195312 12.058594 C 39.332031 11.925781 39.46875 11.796875 39.609375 11.660156 C 39.683594 11.59375 39.453125 11.816406 39.519531 11.75 C 39.59375 11.679688 39.664062 11.613281 39.730469 11.542969 C 40.007812 11.253906 39.953125 11.324219 40.234375 11.035156 C 40.257812 11.0625 40.679688 10.65625 40.703125 10.671875 C 40.714844 10.683594 40.707031 10.710938 40.667969 10.773438 C 40.625 10.835938 40.542969 10.933594 40.40625 11.085938 C 37.96875 13.65625 35.410156 15.597656 32.191406 17.207031 C 30.585938 18.011719 28.890625 18.65625 27.140625 19.105469 C 25.386719 19.550781 23.582031 19.800781 21.765625 19.820312 C 19.953125 19.839844 18.136719 19.628906 16.371094 19.203125 C 14.609375 18.78125 12.898438 18.148438 11.285156 17.34375 C 9.667969 16.539062 8.148438 15.566406 6.726562 14.484375 C 6.371094 14.210938 6.007812 13.949219 5.675781 13.652344 L 5.164062 13.21875 L 4.910156 13.003906 C 4.824219 12.929688 4.738281 12.863281 4.660156 12.78125 C 4.332031 12.476562 4.007812 12.175781 3.683594 11.867188 C 3.605469 11.792969 3.519531 11.71875 3.445312 11.640625 L 3.210938 11.398438 L 2.75 10.921875 C 1.632812 9.746094 2.585938 10.519531 3.503906 11.300781 C 3.199219 11.039062 3.273438 10.96875 2.964844 10.707031 C 3 10.667969 3.1875 10.761719 3.511719 11.003906 C 3.828125 11.253906 3.519531 10.972656 4.113281 11.5 C 3.820312 11.230469 4.316406 11.605469 4.027344 11.332031 C 3.757812 11.03125 4.097656 11.257812 4.140625 11.207031 C 4.433594 11.476562 4.726562 11.746094 4.746094 11.71875 C 4.769531 11.695312 4.816406 11.644531 4.835938 11.617188 C 4.695312 11.484375 4.476562 11.285156 4.257812 11.082031 C 4.144531 10.984375 4.046875 10.875 3.949219 10.78125 C 3.851562 10.683594 3.765625 10.597656 3.699219 10.527344 C 3.835938 10.667969 3.878906 10.640625 3.984375 10.742188 C 4.039062 10.792969 4.085938 10.832031 4.121094 10.859375 C 4.15625 10.882812 4.179688 10.894531 4.183594 10.890625 C 4.210938 10.867188 4.355469 10.980469 4.375 10.960938 C 4.675781 11.214844 5.03125 11.550781 5.386719 11.894531 C 5.433594 11.9375 5.476562 11.980469 5.519531 12.023438 C 5.566406 12.0625 5.613281 12.101562 5.65625 12.140625 C 5.75 12.222656 5.839844 12.296875 5.929688 12.375 C 6.109375 12.527344 6.277344 12.664062 6.4375 12.785156 L 6.5 12.707031 C 6.355469 12.574219 6.191406 12.429688 6.011719 12.277344 C 5.921875 12.199219 5.832031 12.125 5.742188 12.046875 C 5.695312 12.007812 5.648438 11.972656 5.601562 11.929688 C 5.554688 11.890625 5.511719 11.847656 5.464844 11.808594 C 5.101562 11.480469 4.738281 11.152344 4.449219 10.886719 C 4.761719 11.128906 4.785156 11.101562 4.832031 11.050781 C 5.050781 11.242188 5.265625 11.441406 5.480469 11.644531 L 5.636719 11.796875 C 5.691406 11.847656 5.746094 11.894531 5.800781 11.941406 L 6.132812 12.230469 C 6.351562 12.421875 6.574219 12.609375 6.800781 12.792969 L 6.886719 12.863281 L 7.15625 13.050781 C 7.277344 13.132812 7.398438 13.214844 7.519531 13.289062 C 7.214844 13.054688 6.898438 12.828125 6.605469 12.570312 C 6.691406 12.617188 6.789062 12.675781 6.898438 12.753906 C 7.003906 12.824219 7.128906 12.902344 7.253906 12.992188 C 7.507812 13.171875 7.785156 13.382812 8.074219 13.605469 C 8.109375 13.632812 8.144531 13.65625 8.179688 13.6875 C 8.214844 13.714844 8.257812 13.738281 8.292969 13.765625 L 8.519531 13.925781 C 8.667969 14.03125 8.820312 14.136719 8.960938 14.238281 C 9.109375 14.34375 9.253906 14.441406 9.386719 14.535156 C 9.527344 14.625 9.664062 14.703125 9.789062 14.773438 Z M 9.773438 14.765625 "/>
<path style=" stroke:none;fill-rule:nonzero;fill:rgb(100%,100%,100%);fill-opacity:1;" d="M 1.109375 10.183594 C 1.117188 10.238281 1.125 10.292969 1.136719 10.347656 C 1.113281 10.117188 1.105469 9.882812 1.113281 9.660156 C 1.125 9.441406 1.160156 9.230469 1.230469 9.058594 C 1.300781 8.890625 1.398438 8.765625 1.527344 8.699219 C 1.65625 8.625 1.820312 8.59375 1.996094 8.597656 C 2.042969 8.605469 2.132812 8.625 2.179688 8.640625 C 2.539062 8.671875 3.054688 8.785156 3.460938 8.910156 C 3.664062 8.96875 3.871094 8.902344 3.871094 8.902344 C 3.929688 8.902344 4.003906 8.875 3.960938 8.828125 C 3.863281 8.769531 3.605469 8.671875 3.621094 8.625 C 3.621094 8.613281 3.675781 8.632812 3.730469 8.65625 C 3.75 8.605469 3.945312 8.570312 3.996094 8.597656 C 4.058594 8.59375 4.402344 8.664062 4.46875 8.671875 C 4.511719 8.683594 4.523438 8.664062 4.503906 8.632812 C 4.488281 8.597656 4.449219 8.546875 4.398438 8.488281 C 4.292969 8.375 4.136719 8.238281 4.03125 8.179688 C 3.925781 8.109375 4.054688 8.117188 4.070312 8.082031 C 3.953125 8.050781 3.910156 7.992188 3.789062 7.964844 C 3.792969 7.949219 3.445312 7.816406 3.261719 7.769531 C 3.261719 7.769531 3.199219 7.761719 3.011719 7.722656 C 2.953125 7.710938 2.949219 7.722656 2.945312 7.734375 C 2.945312 7.734375 2.949219 7.726562 2.953125 7.710938 C 2.882812 7.71875 2.765625 7.671875 2.699219 7.675781 C 2.699219 7.675781 2.699219 7.667969 2.703125 7.652344 C 2.570312 7.65625 2.445312 7.617188 2.308594 7.625 C 2.308594 7.625 2.308594 7.617188 2.308594 7.601562 C 2.238281 7.597656 2.171875 7.601562 2.171875 7.585938 L 2.171875 7.558594 C 2.101562 7.546875 1.960938 7.578125 1.960938 7.554688 C 1.960938 7.554688 1.960938 7.566406 1.960938 7.582031 C 1.675781 7.605469 1.445312 7.652344 1.214844 7.738281 C 1.0625 7.792969 0.894531 7.886719 0.753906 8.019531 C 0.609375 8.144531 0.484375 8.3125 0.398438 8.484375 C 0.308594 8.65625 0.253906 8.835938 0.21875 9.011719 C 0.1875 9.183594 0.171875 9.347656 0.167969 9.503906 C 0.164062 9.574219 0.191406 9.644531 0.214844 9.574219 C 0.214844 9.640625 0.210938 9.710938 0.214844 9.777344 C 0.21875 9.910156 0.253906 9.84375 0.261719 9.972656 C 0.292969 10.234375 0.335938 10.480469 0.386719 10.722656 C 0.4375 10.96875 0.496094 11.207031 0.558594 11.441406 C 0.683594 11.910156 0.835938 12.367188 1.023438 12.808594 C 0.992188 12.691406 0.960938 12.59375 0.933594 12.492188 C 0.902344 12.390625 0.871094 12.289062 0.824219 12.179688 C 0.839844 12.175781 0.859375 12.164062 0.84375 12.109375 C 0.734375 11.765625 0.597656 11.363281 0.605469 11.175781 C 0.605469 11.113281 0.625 11.046875 0.585938 10.867188 L 0.625 11.046875 C 0.625 11.046875 0.660156 11.039062 0.660156 11.039062 C 0.617188 10.804688 0.570312 10.503906 0.554688 10.261719 C 0.554688 10.261719 0.582031 10.261719 0.59375 10.257812 L 0.582031 10.136719 C 0.621094 10.074219 0.648438 10.207031 0.6875 10.390625 C 0.722656 10.570312 0.769531 10.804688 0.808594 10.945312 C 0.824219 10.945312 0.84375 10.9375 0.859375 10.933594 L 0.835938 10.820312 L 0.859375 10.816406 C 0.933594 11.15625 1.015625 11.4375 1.117188 11.769531 C 1.101562 11.714844 1.066406 11.605469 1.050781 11.550781 C 1.0625 11.546875 1.074219 11.542969 1.058594 11.488281 C 1.125 11.710938 1.199219 11.992188 1.304688 12.203125 C 1.335938 12.253906 1.351562 12.183594 1.304688 12.019531 C 1.25 11.855469 1.210938 11.742188 1.160156 11.574219 L 1.1875 11.566406 C 1.21875 11.679688 1.261719 11.847656 1.308594 11.953125 C 1.339844 12.003906 1.308594 11.828125 1.339844 11.878906 C 1.359375 11.933594 1.375 11.988281 1.410156 12.039062 C 1.351562 11.875 1.269531 11.660156 1.234375 11.492188 C 1.230469 11.433594 1.226562 11.375 1.25 11.367188 C 1.15625 11.097656 1.148438 10.867188 1.171875 10.6875 C 1.183594 10.628906 1.121094 10.355469 1.101562 10.195312 Z M 1.109375 10.183594 "/>
<path style=" stroke:none;fill-rule:nonzero;fill:rgb(100%,100%,100%);fill-opacity:1;" d="M 42.75 10.851562 C 42.742188 10.914062 42.730469 10.972656 42.722656 11.035156 C 42.78125 10.777344 42.816406 10.503906 42.820312 10.222656 C 42.820312 9.9375 42.796875 9.636719 42.691406 9.332031 C 42.636719 9.179688 42.566406 9.027344 42.464844 8.886719 C 42.371094 8.75 42.242188 8.621094 42.105469 8.523438 C 41.828125 8.324219 41.515625 8.230469 41.238281 8.175781 C 41.167969 8.152344 41.027344 8.121094 40.957031 8.109375 C 40.679688 8.085938 40.378906 8.125 40.09375 8.183594 C 39.8125 8.25 39.542969 8.34375 39.3125 8.441406 C 39.199219 8.488281 39.109375 8.5625 39.050781 8.628906 C 38.992188 8.691406 38.964844 8.742188 38.964844 8.742188 C 38.917969 8.789062 38.882812 8.863281 38.949219 8.863281 C 39.066406 8.824219 39.34375 8.714844 39.363281 8.765625 C 39.367188 8.777344 39.3125 8.800781 39.253906 8.820312 C 39.273438 8.867188 39.148438 9.027344 39.09375 9.054688 C 39.046875 9.097656 38.765625 9.316406 38.730469 9.367188 C 38.695312 9.394531 38.703125 9.414062 38.738281 9.421875 C 38.773438 9.429688 38.832031 9.433594 38.90625 9.429688 C 39.050781 9.425781 39.242188 9.40625 39.347656 9.382812 C 39.460938 9.363281 39.371094 9.445312 39.382812 9.480469 C 39.480469 9.429688 39.546875 9.445312 39.640625 9.394531 C 39.644531 9.40625 39.957031 9.3125 40.109375 9.277344 C 40.109375 9.277344 40.15625 9.246094 40.308594 9.214844 C 40.359375 9.203125 40.355469 9.191406 40.355469 9.179688 C 40.355469 9.179688 40.355469 9.1875 40.359375 9.203125 C 40.40625 9.167969 40.511719 9.175781 40.558594 9.152344 C 40.558594 9.152344 40.5625 9.160156 40.5625 9.179688 C 40.660156 9.136719 40.765625 9.152344 40.855469 9.132812 C 40.855469 9.132812 40.855469 9.144531 40.855469 9.160156 C 40.902344 9.160156 40.949219 9.160156 40.949219 9.171875 L 40.949219 9.195312 C 40.996094 9.207031 41.085938 9.1875 41.082031 9.214844 C 41.082031 9.214844 41.082031 9.207031 41.082031 9.1875 C 41.257812 9.199219 41.371094 9.25 41.457031 9.300781 C 41.566406 9.382812 41.640625 9.457031 41.71875 9.59375 C 41.753906 9.65625 41.785156 9.742188 41.8125 9.832031 C 41.839844 9.925781 41.859375 10.027344 41.871094 10.132812 C 41.875 10.183594 41.898438 10.230469 41.925781 10.183594 C 41.925781 10.234375 41.929688 10.28125 41.925781 10.332031 C 41.925781 10.433594 41.964844 10.382812 41.957031 10.488281 C 41.960938 10.699219 41.9375 10.914062 41.898438 11.132812 C 41.859375 11.347656 41.808594 11.5625 41.746094 11.78125 C 41.625 12.214844 41.46875 12.644531 41.324219 13.078125 C 41.371094 12.972656 41.414062 12.878906 41.453125 12.789062 C 41.492188 12.699219 41.527344 12.605469 41.558594 12.496094 C 41.570312 12.5 41.59375 12.507812 41.613281 12.453125 C 41.738281 12.132812 41.816406 11.746094 41.90625 11.59375 C 41.933594 11.542969 41.984375 11.496094 42.023438 11.332031 L 41.984375 11.5 C 41.984375 11.5 42.023438 11.503906 42.023438 11.503906 C 42.085938 11.289062 42.15625 11.007812 42.195312 10.785156 C 42.195312 10.785156 42.21875 10.785156 42.234375 10.789062 L 42.246094 10.675781 C 42.296875 10.621094 42.304688 10.753906 42.289062 10.933594 C 42.277344 11.117188 42.226562 11.34375 42.199219 11.488281 C 42.210938 11.488281 42.238281 11.496094 42.25 11.5 L 42.277344 11.386719 L 42.300781 11.386719 C 42.226562 11.734375 42.148438 12.019531 42.039062 12.351562 C 42.058594 12.296875 42.089844 12.183594 42.109375 12.128906 C 42.117188 12.132812 42.132812 12.132812 42.152344 12.078125 C 42.082031 12.304688 41.980469 12.582031 41.925781 12.8125 C 41.917969 12.871094 41.972656 12.828125 42.042969 12.664062 C 42.097656 12.5 42.136719 12.386719 42.191406 12.214844 L 42.214844 12.222656 C 42.183594 12.335938 42.113281 12.5 42.089844 12.613281 C 42.082031 12.675781 42.160156 12.515625 42.15625 12.574219 C 42.140625 12.632812 42.121094 12.6875 42.113281 12.75 C 42.171875 12.582031 42.234375 12.351562 42.292969 12.183594 C 42.324219 12.128906 42.351562 12.078125 42.375 12.082031 C 42.449219 11.792969 42.539062 11.566406 42.636719 11.398438 C 42.660156 11.371094 42.675781 11.28125 42.695312 11.175781 C 42.714844 11.066406 42.730469 10.945312 42.742188 10.851562 Z M 42.75 10.851562 "/>
<path style=" stroke:none;fill-rule:nonzero;fill:rgb(0%,10.588235%,44.705883%);fill-opacity:1;" d="M 7.28125 3.917969 L 9.867188 3.917969 L 9.867188 5.242188 C 10.5 4.382812 11.367188 3.742188 12.710938 3.742188 C 14.835938 3.742188 16.859375 5.433594 16.859375 8.523438 L 16.859375 8.558594 C 16.859375 11.652344 14.871094 13.34375 12.710938 13.34375 C 11.332031 13.34375 10.480469 12.703125 9.867188 11.960938 L 9.867188 16.609375 L 7.28125 16.609375 Z M 14.273438 8.554688 L 14.273438 8.519531 C 14.273438 6.984375 13.25 5.96875 12.042969 5.96875 C 10.835938 5.96875 9.832031 6.984375 9.832031 8.519531 L 9.832031 8.554688 C 9.832031 10.089844 10.835938 11.109375 12.042969 11.109375 C 13.25 11.109375 14.273438 10.109375 14.273438 8.554688 Z M 14.273438 8.554688 "/>
<path style=" stroke:none;fill-rule:nonzero;fill:rgb(0%,10.588235%,44.705883%);fill-opacity:1;" d="M 17.078125 8.554688 L 17.078125 8.519531 C 17.078125 5.429688 19.066406 3.738281 21.226562 3.738281 C 22.605469 3.738281 23.457031 4.378906 24.070312 5.121094 L 24.070312 0.183594 L 26.652344 0.183594 L 26.652344 13.164062 L 24.070312 13.164062 L 24.070312 11.832031 C 23.4375 12.695312 22.570312 13.335938 21.226562 13.335938 C 19.101562 13.335938 17.078125 11.644531 17.078125 8.550781 Z M 24.101562 8.554688 L 24.101562 8.519531 C 24.101562 6.984375 23.097656 5.96875 21.890625 5.96875 C 20.683594 5.96875 19.660156 6.96875 19.660156 8.519531 L 19.660156 8.554688 C 19.660156 10.089844 20.683594 11.109375 21.890625 11.109375 C 23.097656 11.109375 24.101562 10.089844 24.101562 8.554688 Z M 24.101562 8.554688 "/>
<path style=" stroke:none;fill-rule:nonzero;fill:rgb(0%,10.588235%,44.705883%);fill-opacity:1;" d="M 27.246094 8.59375 L 27.246094 8.554688 C 27.246094 5.917969 29.238281 3.742188 32.027344 3.742188 C 33.746094 3.742188 34.816406 4.328125 35.667969 5.292969 L 34.085938 7.023438 C 33.507812 6.398438 32.925781 6.003906 32.011719 6.003906 C 30.714844 6.003906 29.800781 7.160156 29.800781 8.523438 L 29.800781 8.558594 C 29.800781 9.972656 30.699219 11.113281 32.113281 11.113281 C 32.980469 11.113281 33.574219 10.734375 34.207031 10.128906 L 35.71875 11.679688 C 34.832031 12.664062 33.8125 13.371094 31.992188 13.371094 C 29.253906 13.371094 27.246094 11.230469 27.246094 8.589844 Z M 27.246094 8.59375 "/>
</g>
</svg>
